<?xml version="1.0" standalone="no"?>
<!DOCTYPE svg PUBLIC "-//W3C//DTD SVG 20010904//EN"
 "http://www.w3.org/TR/2001/REC-SVG-20010904/DTD/svg10.dtd">
<svg version="1.0" xmlns="http://www.w3.org/2000/svg"
 width="785.000000pt" height="785.000000pt" viewBox="0 0 785.000000 785.000000"
 preserveAspectRatio="xMidYMid meet">
<metadata>
Created by potrace 1.14, written by Peter Selinger 2001-2017
</metadata>
<g transform="translate(0.000000,785.000000) scale(0.100000,-0.100000)"
fill="#000000" stroke="none">
<path d="M2695 7470 c3 -5 8 -10 11 -10 2 0 4 5 4 10 0 6 -5 10 -11 10 -5 0
-7 -4 -4 -10z"/>
<path d="M2750 7470 c0 -5 5 -10 10 -10 6 0 10 5 10 10 0 6 -4 10 -10 10 -5 0
-10 -4 -10 -10z"/>
<path d="M2780 7467 c0 -5 6 -7 14 -4 8 3 17 3 20 0 3 -4 21 -8 38 -9 32 -3
73 -11 73 -14 0 -1 16 -3 36 -5 20 -1 45 -8 56 -14 11 -5 23 -7 27 -4 3 3 6 0
6 -7 0 -7 3 -10 7 -7 3 4 15 -1 26 -10 11 -10 17 -12 13 -5 -10 16 5 15 29 -2
11 -7 22 -13 25 -13 3 0 21 -7 40 -15 19 -9 42 -19 50 -22 8 -3 29 -15 45 -26
17 -11 38 -23 47 -26 10 -4 15 -11 11 -17 -3 -5 -2 -7 4 -4 13 8 55 -22 48
-34 -3 -5 1 -6 9 -3 9 4 18 -1 22 -10 3 -9 13 -16 21 -16 8 0 11 -4 8 -10 -3
-5 -1 -10 6 -10 13 0 79 -68 107 -110 9 -14 22 -29 29 -33 7 -4 13 -14 13 -22
0 -7 6 -20 14 -28 24 -24 78 -146 70 -158 -5 -8 -3 -9 6 -4 8 5 11 3 8 -6 -3
-8 2 -23 11 -33 11 -14 12 -17 2 -11 -10 6 -12 4 -5 -6 10 -16 11 -25 20 -94
3 -27 7 -55 9 -61 2 -6 -1 -17 -5 -25 -5 -8 -4 -19 2 -26 7 -8 7 -13 0 -13 -5
0 -8 -16 -6 -35 2 -24 -1 -33 -8 -29 -7 5 -8 2 -4 -5 8 -12 -31 -150 -44 -161
-3 -3 -12 -20 -19 -37 -8 -18 -17 -33 -22 -33 -5 0 -9 -5 -9 -10 0 -11 -100
-161 -128 -192 -8 -10 -12 -18 -8 -18 4 0 1 -7 -6 -15 -24 -26 -34 -40 -41
-55 -4 -8 -16 -28 -26 -45 -11 -16 -32 -52 -46 -79 -46 -85 -50 -91 -58 -97
-5 -3 -8 -9 -8 -13 2 -12 -52 -125 -58 -122 -3 2 -7 -10 -8 -27 -1 -17 -8 -34
-14 -38 -6 -4 -8 -12 -5 -18 4 -6 2 -11 -4 -11 -6 0 -9 -4 -5 -9 3 -5 -3 -17
-12 -27 -10 -10 -17 -19 -15 -21 7 -9 1 -53 -7 -48 -6 3 -8 -4 -6 -15 2 -11 0
-20 -5 -20 -4 0 -6 -9 -3 -20 3 -11 1 -20 -3 -20 -5 0 -10 -19 -11 -43 -3 -39
-9 -82 -13 -82 -1 0 -3 -10 -4 -22 -2 -13 1 -23 5 -23 5 0 5 -10 0 -22 -9 -26
-8 -75 2 -84 3 -4 2 -15 -4 -25 -5 -11 -6 -19 -2 -19 4 0 9 -15 11 -33 3 -38
6 -55 16 -82 5 -11 15 -38 23 -59 8 -22 23 -52 34 -67 10 -15 19 -30 19 -34 0
-11 108 -115 120 -115 5 0 10 -4 10 -9 0 -5 14 -14 30 -21 17 -7 30 -16 30
-21 0 -5 9 -9 20 -9 11 0 20 -4 20 -10 0 -5 9 -10 19 -10 11 0 22 -4 25 -9 6
-9 64 -25 84 -22 6 1 12 -2 12 -6 0 -13 210 -20 260 -9 14 3 34 8 45 10 11 2
32 9 46 14 15 6 29 9 32 6 2 -2 10 2 16 10 7 8 20 12 28 9 11 -4 14 -2 9 5 -4
7 -1 12 8 12 9 0 16 5 16 11 0 5 4 8 9 5 5 -3 14 1 21 10 7 8 19 13 25 10 7
-2 22 6 34 20 11 13 28 24 36 24 8 0 15 7 15 15 0 8 5 15 10 15 6 0 19 9 30
20 11 11 18 20 15 20 -2 0 10 16 28 35 45 48 62 69 62 75 1 3 9 22 19 42 9 20
19 45 21 55 2 10 4 19 5 21 2 1 4 7 5 12 1 6 4 13 5 18 1 4 2 15 1 25 -1 9 4
17 11 17 10 0 10 2 -1 9 -11 7 -12 13 -4 23 8 10 7 17 -4 27 -14 12 -15 12
-11 0 3 -8 -1 -26 -9 -41 -7 -16 -11 -28 -8 -28 5 0 -52 -115 -67 -135 -29
-39 -56 -64 -62 -57 -4 4 -7 2 -6 -3 4 -20 0 -35 -10 -35 -6 0 -19 -9 -30 -20
-12 -12 -26 -18 -33 -14 -7 4 -9 4 -5 -1 13 -14 -96 -79 -118 -71 -8 3 -13 0
-11 -7 1 -7 -4 -11 -10 -9 -7 1 -13 -2 -13 -6 0 -5 -6 -9 -12 -10 -21 -1 -71
-13 -80 -18 -4 -3 -31 -7 -60 -10 -29 -2 -59 -7 -65 -9 -7 -2 -13 1 -13 7 0 7
-4 7 -13 -1 -8 -6 -16 -8 -19 -6 -3 3 -23 8 -44 10 -40 5 -79 12 -79 15 0 1
-8 3 -18 5 -22 4 -112 51 -150 77 -15 11 -24 24 -21 30 4 6 2 8 -3 5 -13 -8
-45 27 -36 39 5 5 4 6 -1 2 -9 -8 -63 61 -58 75 1 4 -2 7 -8 7 -5 0 -10 6 -10
14 0 7 -6 26 -14 41 -8 15 -13 36 -11 46 2 11 0 19 -4 19 -4 0 -8 12 -7 28 1
15 -2 42 -5 60 -4 17 -3 32 1 32 4 0 6 14 4 32 -2 18 1 35 8 40 10 6 10 8 1 8
-7 0 -10 6 -8 13 2 6 7 30 10 52 11 77 17 105 25 105 4 0 5 12 2 26 -4 20 -2
25 8 19 8 -5 11 -4 6 3 -4 6 0 27 8 46 8 19 12 37 8 40 -3 3 -1 6 5 6 6 0 13
14 17 31 3 17 10 28 15 25 5 -3 7 3 4 14 -3 11 0 20 6 20 6 0 10 3 9 8 -4 15
14 52 22 47 5 -3 7 4 5 15 -2 11 1 20 6 20 6 0 7 5 4 10 -3 6 -1 10 4 10 6 0
10 3 9 8 -2 9 13 45 22 52 3 3 14 24 24 48 11 23 22 42 26 42 5 0 11 11 14 25
4 14 11 25 17 25 6 0 8 4 5 9 -3 5 1 14 9 21 8 7 13 16 10 20 -3 4 5 19 18 32
12 14 23 32 25 39 2 8 11 20 20 27 9 7 16 14 15 15 -5 4 10 47 16 47 4 0 20
26 36 58 17 31 34 60 39 63 5 4 5 12 2 18 -4 6 -3 11 2 11 8 0 18 20 19 40 0
3 8 23 18 45 17 40 21 58 24 103 0 13 5 21 10 17 6 -3 6 6 1 24 -4 16 -6 32
-2 35 9 10 9 130 -1 144 -6 8 -5 18 4 29 10 11 10 14 2 9 -9 -4 -14 -1 -15 11
0 10 -2 23 -3 28 -2 6 -4 15 -5 20 -1 6 -2 13 -1 18 0 4 -4 7 -10 7 -5 0 -8 4
-4 10 3 5 1 17 -4 27 -5 10 -24 50 -42 88 -19 39 -38 75 -44 82 -5 6 -32 43
-60 82 -27 39 -56 71 -63 71 -7 0 -10 5 -7 10 3 6 0 10 -7 10 -7 0 -24 14 -38
30 -14 17 -31 30 -38 30 -7 0 -10 5 -7 10 3 6 1 10 -5 10 -11 0 -24 9 -59 41
-10 9 -32 22 -49 30 -18 8 -32 18 -32 22 0 5 -4 6 -9 2 -5 -3 -17 2 -25 11 -9
8 -16 13 -16 9 0 -3 -13 3 -29 14 -15 11 -31 18 -35 14 -3 -3 -6 -1 -6 6 0 7
-4 9 -10 6 -5 -3 -20 0 -32 7 -23 12 -42 18 -65 20 -7 1 -13 4 -13 8 0 3 -10
7 -22 7 -29 2 -50 7 -63 15 -6 4 -23 5 -38 4 -15 -2 -30 0 -32 4 -3 4 -18 6
-35 4 -16 -2 -30 0 -30 4 0 4 -25 7 -55 7 -30 1 -55 -3 -55 -8z"/>
<path d="M2593 6350 c-49 -11 -95 -42 -130 -88 -64 -84 -54 -173 23 -218 130
-77 348 42 346 190 -2 97 -106 148 -239 116z"/>
<path d="M4118 5903 c6 -2 12 -11 12 -18 0 -7 4 -15 9 -17 8 -3 123 -174 164
-243 32 -55 107 -217 107 -231 0 -8 5 -14 12 -14 6 0 9 -2 6 -6 -3 -3 3 -27
13 -55 10 -27 16 -49 13 -49 -4 0 -1 -6 5 -13 6 -8 8 -17 5 -20 -3 -3 -2 -12
2 -19 26 -42 20 -307 -7 -316 -5 -2 -7 -8 -4 -12 6 -10 -30 -85 -53 -112 -8
-10 -12 -18 -9 -18 16 0 -99 -121 -166 -175 -20 -16 -39 -28 -41 -25 -2 3 -13
-4 -25 -14 -12 -11 -21 -15 -21 -10 0 5 -4 4 -8 -1 -12 -17 -116 -59 -177 -71
-11 -2 -31 -6 -45 -10 -45 -10 -84 -13 -165 -13 -72 0 -170 5 -170 9 0 1 -11
4 -25 6 -37 7 -121 39 -166 64 -72 40 -154 109 -154 129 0 6 -6 11 -12 11 -11
0 -51 56 -45 63 1 1 -8 13 -19 25 -28 30 -74 170 -80 242 -9 115 -10 165 -1
178 6 8 5 12 -2 12 -7 0 -9 5 -4 13 4 6 8 24 9 40 1 15 2 28 4 30 1 1 4 18 7
37 2 19 21 85 41 145 20 61 35 113 34 118 -1 4 2 7 6 7 4 0 23 34 41 75 19 41
38 75 44 75 6 0 7 3 4 6 -4 4 2 19 13 34 11 16 20 32 20 37 0 5 8 18 18 29 21
24 44 64 37 64 -13 0 -175 -207 -175 -224 0 -3 -16 -31 -35 -64 -43 -71 -106
-218 -98 -226 4 -3 1 -6 -5 -6 -7 0 -11 -3 -11 -7 1 -5 0 -10 -1 -13 -1 -3 -4
-18 -6 -35 -3 -16 -8 -32 -12 -35 -4 -3 -8 -14 -8 -25 -1 -11 -5 -42 -9 -70
-19 -116 -4 -300 30 -381 8 -19 11 -34 8 -34 -3 0 0 -6 6 -13 6 -8 8 -17 4
-20 -3 -4 -1 -7 5 -7 7 0 12 -6 12 -13 0 -32 109 -164 191 -232 24 -20 119
-79 129 -80 3 0 11 -4 18 -8 6 -5 12 -5 12 -1 0 4 9 -1 21 -12 12 -10 24 -18
28 -17 11 4 81 -9 81 -16 0 -6 14 -8 85 -11 41 -2 44 -10 48 -112 1 -38 6 -68
11 -68 5 0 3 -7 -4 -15 -7 -8 -9 -15 -4 -15 5 0 9 -42 8 -93 0 -50 4 -100 9
-111 6 -13 6 -16 -2 -12 -8 5 -8 0 -3 -16 11 -29 10 -1019 -1 -1035 -5 -8 -4
-13 3 -13 6 0 8 -5 3 -12 -4 -7 -8 -56 -9 -108 -2 -84 -8 -193 -19 -315 -2
-22 -4 -50 -4 -62 -1 -18 -7 -21 -43 -22 -87 -2 -265 -10 -333 -16 -99 -9
-140 -13 -140 -15 0 -2 -21 -6 -70 -14 -59 -10 -113 -25 -119 -35 -3 -4 17 -7
44 -7 28 1 50 3 50 6 0 4 297 4 335 -1 6 0 20 2 33 5 13 3 22 0 22 -7 0 -8 3
-8 12 1 7 7 17 8 30 1 10 -5 18 -6 18 -1 0 10 36 9 46 0 3 -4 16 -3 28 1 11 5
30 5 41 1 11 -4 26 -3 33 2 6 6 12 6 12 1 0 -5 9 -9 20 -9 11 0 20 4 20 9 0 4
5 5 12 1 17 -11 168 -11 168 -1 0 5 5 5 11 2 18 -12 59 -13 59 -2 0 7 4 7 12
-1 7 -7 17 -8 29 -2 11 7 20 7 24 0 4 -6 15 -6 31 0 17 7 23 7 19 0 -4 -6 2
-7 17 -1 15 5 31 5 41 0 11 -7 17 -6 17 1 0 7 6 8 19 0 13 -7 22 -7 26 0 4 7
13 7 26 0 13 -8 19 -7 19 0 0 7 6 8 19 0 14 -7 22 -7 26 0 5 8 11 8 19 1 7 -6
16 -8 20 -4 9 9 36 13 36 5 0 -4 34 -7 75 -8 41 -1 75 2 75 6 0 7 -22 14 -130
37 -19 4 -46 8 -60 9 -14 1 -25 3 -25 4 0 4 -191 19 -345 26 -74 3 -136 6
-136 7 -7 9 -25 292 -29 457 -2 74 -4 137 -5 140 -2 3 -1 10 0 15 6 28 5 66
-1 77 -4 7 -3 20 2 29 5 10 5 20 1 23 -7 4 -9 153 -2 181 1 6 1 12 0 15 -8 21
-6 40 3 40 8 0 8 3 2 8 -13 9 -14 122 -2 122 5 0 4 6 -2 14 -8 10 -9 16 -1 21
6 4 7 12 1 23 -5 9 -6 25 -3 36 4 12 7 112 7 223 0 112 3 203 6 203 3 0 5 21
6 48 0 100 16 307 24 318 5 6 28 12 51 13 24 2 49 3 56 4 6 0 12 4 12 9 0 5 4
7 9 4 18 -12 162 34 251 79 95 48 260 184 260 214 0 5 4 11 9 13 26 10 102
175 119 263 12 57 5 219 -11 273 -9 29 -17 56 -18 60 -1 4 -5 17 -10 30 -5 13
-9 27 -9 32 0 13 -95 203 -112 225 -4 6 -33 48 -64 95 -31 47 -61 90 -68 95
-6 6 -22 23 -35 40 -51 66 -115 135 -125 134 -6 0 -5 -3 2 -6z"/>
<path d="M2425 5588 c-166 -21 -375 -137 -563 -313 -62 -57 -70 -69 -57 -79
13 -10 9 -17 -30 -56 -25 -24 -45 -47 -45 -51 0 -8 86 -39 108 -39 7 0 37 22
65 49 175 166 276 229 331 208 26 -10 22 -50 -21 -222 -155 -620 -207 -961
-159 -1053 28 -55 70 -75 150 -75 79 0 162 28 271 91 51 30 209 144 225 162 3
3 32 28 65 55 32 28 86 75 119 106 l60 57 -44 20 c-76 35 -114 28 -195 -38
-94 -77 -214 -157 -246 -165 -45 -11 -61 16 -54 94 3 36 8 75 10 86 3 11 7 31
9 45 20 123 34 183 149 665 47 194 74 330 71 353 -1 6 -2 19 -3 27 -2 21 -74
67 -119 74 -20 4 -64 3 -97 -1z"/>
<path d="M5217 5590 c-117 -30 -242 -127 -301 -234 -81 -144 -101 -277 -51
-341 30 -40 60 -45 96 -16 21 17 23 26 23 127 1 96 4 116 27 165 34 72 95 134
167 167 53 25 66 27 187 26 199 -2 193 15 71 -209 -337 -621 -550 -931 -688
-1001 -57 -29 -116 -31 -150 -5 -13 11 -37 43 -52 73 -55 101 -95 123 -135 72
-54 -69 -4 -185 104 -238 129 -64 264 -28 395 104 37 36 84 90 106 120 60 81
303 475 488 790 l26 45 -4 -35 c-3 -19 -8 -75 -11 -125 -6 -96 -13 -193 -20
-290 -22 -285 -29 -915 -10 -922 6 -2 21 16 33 39 12 24 26 50 32 58 5 8 81
137 168 285 428 727 595 944 711 927 18 -2 48 -20 70 -42 69 -67 102 -75 147
-36 40 34 38 96 -5 140 -82 84 -243 89 -350 9 -38 -27 -117 -107 -151 -152
-11 -14 -30 -39 -42 -55 -54 -71 -136 -203 -283 -454 -88 -150 -163 -272 -167
-272 -5 0 -6 19 -4 43 3 23 8 114 11 202 4 88 8 183 10 210 2 28 7 102 10 165
4 63 8 129 10 145 2 17 6 57 10 90 3 33 8 71 10 85 3 14 7 45 9 70 3 25 10 78
15 118 13 87 3 112 -45 112 -17 0 -56 5 -85 11 -121 23 -168 30 -254 34 -49 2
-107 0 -128 -5z"/>
<path d="M3767 5584 c-1 -2 -18 -5 -37 -7 -75 -9 -94 -31 -27 -33 93 -2 202
-27 286 -65 28 -12 48 -26 45 -31 -3 -4 0 -8 6 -8 15 0 70 -52 70 -65 0 -6 6
-17 13 -23 6 -7 12 -16 13 -20 0 -4 4 -16 8 -27 22 -57 26 -72 28 -97 1 -15 6
-24 10 -22 5 3 6 9 3 14 -3 5 -1 11 3 14 24 15 -2 180 -34 217 -8 9 -11 19 -7
22 3 4 -1 7 -10 7 -8 0 -19 9 -22 21 -4 11 -9 18 -12 15 -3 -2 -17 6 -31 20
-15 13 -35 24 -44 24 -10 0 -18 5 -18 10 0 6 -3 9 -7 8 -5 -1 -27 4 -50 10
-39 12 -178 23 -186 16z"/>
<path d="M4175 5530 c-3 -5 1 -25 9 -44 8 -19 12 -37 8 -40 -3 -3 0 -6 6 -6 7
0 12 -9 12 -20 0 -11 4 -20 9 -20 6 0 8 -9 6 -20 -2 -11 0 -20 4 -20 5 0 7
-11 6 -25 -2 -16 1 -23 7 -18 7 4 9 -2 6 -15 -4 -12 -3 -24 2 -27 4 -2 8 -15
9 -27 1 -13 3 -43 4 -68 5 -70 -28 -173 -70 -220 -43 -48 -90 -91 -105 -96
-10 -3 -18 -9 -18 -14 0 -5 -17 -18 -37 -29 -29 -15 -33 -20 -18 -22 11 -1 25
0 30 1 6 2 17 4 27 4 9 1 23 8 32 15 9 8 16 11 16 7 0 -13 103 56 138 93 40
42 67 77 62 82 -2 2 3 15 10 29 8 14 16 32 17 40 7 31 9 172 2 176 -8 4 -24
83 -21 97 2 5 -1 6 -6 3 -5 -3 -17 12 -27 34 -10 22 -23 40 -28 40 -6 0 -8 3
-4 6 5 6 -31 52 -65 82 -9 9 -15 19 -12 24 3 4 3 8 0 8 -3 0 -7 -4 -11 -10z"/>
<path d="M7586 5275 c-137 -66 -160 -219 -44 -285 48 -27 90 -31 146 -14 125
37 194 167 133 253 -48 67 -150 87 -235 46z"/>
<path d="M945 5155 c-311 -56 -643 -355 -792 -715 -88 -211 -109 -448 -58
-642 35 -133 131 -277 224 -337 130 -84 312 -97 370 -28 23 29 24 80 1 105
-25 26 -38 27 -126 6 -82 -18 -143 -12 -201 22 -148 86 -239 351 -203 592 47
305 288 618 560 725 190 74 400 50 567 -65 180 -123 288 -356 279 -599 -5
-142 -48 -265 -139 -398 -40 -59 -169 -188 -228 -229 l-46 -31 -32 97 c-38
114 -129 299 -230 466 -166 274 -311 542 -311 575 0 20 -19 11 -37 -16 -29
-47 -95 -135 -140 -189 -43 -52 -48 -76 -28 -126 7 -16 10 -16 37 7 36 31 49
31 75 3 45 -50 351 -585 410 -718 50 -111 74 -186 75 -227 1 -35 -5 -50 -38
-89 -65 -77 -67 -80 -57 -111 5 -15 12 -28 16 -28 3 0 56 50 119 110 62 61
149 141 193 179 44 37 107 91 140 120 160 137 262 266 334 421 63 136 82 227
76 380 -8 237 -73 384 -245 556 -134 134 -247 187 -415 193 -44 2 -111 -2
-150 -9z"/>
<path d="M6765 4709 c-22 -4 -53 -9 -70 -12 -109 -18 -232 -55 -267 -80 l-26
-20 21 -43 c11 -24 27 -44 35 -44 7 0 66 14 130 31 182 48 287 41 268 -19 -4
-11 -46 -57 -94 -103 -251 -242 -629 -626 -700 -713 -123 -150 -152 -219 -117
-286 40 -78 150 -115 315 -107 114 6 110 6 280 43 170 38 231 56 226 68 -3 6
-10 28 -17 48 l-12 37 -50 -5 c-28 -3 -53 -7 -57 -9 -22 -14 -275 -52 -295
-45 -27 9 -31 52 -9 87 46 73 186 225 484 526 434 439 440 446 440 495 0 56
-88 122 -191 143 -65 13 -238 18 -294 8z"/>
<path d="M5989 2751 c8 -5 -2 -11 -29 -15 -23 -4 -38 -11 -35 -16 4 -6 -1 -13
-9 -16 -9 -3 -13 -10 -10 -15 3 -5 1 -9 -5 -9 -5 0 -9 -9 -8 -20 1 -11 5 -20
10 -20 4 0 6 -4 2 -9 -3 -5 2 -16 10 -24 8 -9 15 -23 15 -32 0 -9 5 -13 10
-10 6 3 10 3 10 -2 0 -4 17 -19 38 -33 20 -14 43 -31 50 -37 7 -7 20 -13 28
-13 8 0 23 -4 34 -10 11 -5 29 -14 40 -20 11 -5 36 -10 55 -10 19 0 35 -4 35
-8 0 -9 181 -7 258 2 36 5 58 3 68 -5 8 -7 14 -7 14 -1 0 15 68 -8 123 -43 26
-17 45 -36 42 -42 -2 -7 1 -12 8 -10 19 3 10 -74 -10 -95 -22 -21 -86 -27
-107 -9 -9 8 -16 10 -16 7 0 -4 -9 -2 -20 4 -35 18 -79 18 -100 0 l-21 -18 28
-29 c15 -17 46 -37 68 -45 45 -17 155 -22 155 -7 0 6 4 8 10 4 22 -14 110 101
95 126 -4 5 -1 9 6 9 8 0 8 4 -1 15 -10 12 -10 15 1 15 9 0 10 3 4 8 -5 4 -11
14 -13 22 -2 8 -11 23 -19 33 -9 9 -13 17 -9 17 4 0 -9 16 -28 35 -20 19 -41
35 -46 35 -6 0 -10 3 -10 8 0 4 -15 13 -32 20 -18 7 -40 17 -49 22 -9 5 -34
12 -55 16 -22 3 -45 11 -51 17 -9 6 -13 5 -13 -4 0 -11 -2 -11 -10 1 -9 13
-10 13 -10 0 0 -9 -3 -11 -8 -5 -7 10 -152 15 -152 5 0 -3 -48 -6 -106 -8 -58
-2 -104 1 -101 5 3 5 -7 8 -21 7 -40 -1 -125 49 -133 80 -8 30 9 39 86 42 73
3 73 3 71 19 -4 27 -39 55 -68 55 -16 0 -27 4 -24 8 3 5 -9 9 -26 10 -20 0
-27 -2 -19 -7z"/>
<path d="M970 2710 c0 -4 -22 -6 -50 -6 -27 1 -50 -1 -50 -4 0 -4 -6 -7 -12
-8 -53 -6 -77 -11 -93 -19 -10 -6 -26 -8 -36 -6 -11 3 -19 0 -19 -7 0 -7 -8
-10 -20 -7 -11 3 -27 -2 -35 -10 -9 -8 -22 -13 -29 -10 -8 3 -17 -1 -20 -9 -3
-9 -10 -13 -16 -9 -10 6 -116 -61 -149 -94 -10 -10 -15 -23 -13 -31 3 -8 0
-10 -9 -5 -8 4 -3 -4 11 -17 14 -14 29 -22 35 -18 10 9 16 10 39 10 13 0 29
14 108 97 12 12 34 27 50 34 15 6 28 15 28 19 0 3 6 7 13 8 39 5 77 15 77 21
0 7 23 11 68 14 12 0 22 4 22 7 0 3 19 7 43 8 48 3 68 6 82 13 8 4 103 3 248
-2 9 0 17 -4 17 -8 0 -4 15 -6 32 -5 18 1 41 -2 51 -8 10 -5 26 -11 36 -13 53
-10 131 -59 131 -83 0 -6 6 -13 13 -15 8 -4 7 -6 -3 -6 -13 -1 -13 -3 -1 -10
13 -8 13 -15 1 -51 -8 -23 -20 -45 -28 -48 -8 -3 -27 -17 -41 -32 -23 -24 -57
-43 -64 -37 -1 1 -13 -8 -27 -20 -13 -13 -30 -23 -37 -23 -7 0 -21 -4 -31 -9
-28 -15 -56 -24 -77 -24 -11 -1 -22 -4 -25 -8 -3 -4 -27 -9 -53 -10 -27 -2
-51 -7 -53 -11 -3 -5 -12 -4 -20 3 -11 9 -14 9 -14 -1 0 -9 -4 -9 -12 -3 -7 6
-28 13 -46 16 -38 8 -53 20 -76 65 -18 34 -15 36 31 35 7 -1 11 3 8 7 -3 4 10
10 28 13 41 6 62 12 115 31 23 8 44 15 47 16 3 0 6 0 8 1 19 6 38 10 64 15 18
4 31 10 28 14 -3 5 3 7 12 5 10 -1 23 0 28 4 10 6 28 10 57 13 9 1 14 6 12 10
-5 7 26 13 49 9 19 -3 3 20 -38 53 -43 36 -93 47 -88 19 3 -15 -21 -34 -46
-36 -11 0 -17 -5 -15 -9 3 -4 -3 -8 -13 -9 -10 0 -25 -2 -33 -5 -8 -2 -30 -7
-47 -10 -18 -4 -33 -10 -33 -14 0 -5 -8 -7 -17 -5 -10 1 -25 -1 -33 -5 -8 -4
-26 -10 -40 -11 -14 -2 -27 -7 -30 -11 -3 -3 -19 -8 -35 -11 -17 -2 -37 -6
-45 -10 -16 -6 -65 -18 -90 -22 -8 -2 -28 -7 -45 -12 -16 -5 -37 -9 -45 -8 -8
0 -17 -2 -20 -6 -3 -4 -18 -8 -35 -10 -16 -2 -36 -7 -43 -13 -7 -5 -15 -6 -19
-3 -3 3 -20 0 -39 -8 -18 -7 -41 -12 -51 -10 -10 1 -23 -1 -29 -6 -5 -4 -29
-10 -52 -11 -23 -2 -42 -5 -42 -8 0 -10 -116 -3 -148 9 -18 7 -37 21 -42 31
-12 23 -70 32 -77 13 -3 -8 4 -24 16 -37 11 -12 21 -26 21 -30 0 -4 7 -14 15
-23 9 -8 19 -28 22 -44 3 -16 10 -29 15 -29 6 0 8 -6 5 -14 -3 -8 2 -30 13
-50 10 -20 14 -33 9 -30 -5 3 -6 -2 -3 -10 3 -9 9 -16 13 -16 3 0 12 -13 19
-30 8 -16 19 -30 25 -30 6 0 19 -7 29 -17 10 -9 18 -12 18 -6 0 6 11 10 25 9
14 0 25 4 25 9 0 6 -5 10 -11 10 -7 0 -15 8 -18 18 -4 10 -11 18 -16 16 -5 -1
-14 7 -20 17 -5 11 -14 22 -19 25 -4 4 -9 21 -10 38 0 17 -5 31 -10 31 -6 0
-2 6 8 13 10 7 30 13 44 12 15 0 29 3 32 7 3 4 21 9 40 11 19 2 42 7 50 10 14
5 120 32 163 42 10 2 27 7 37 10 10 3 27 8 37 10 10 2 32 8 50 14 17 5 34 7
37 3 3 -3 6 -1 6 4 0 16 41 14 57 -2 8 -7 12 -14 8 -14 -6 0 9 -20 38 -50 16
-15 63 -41 127 -70 20 -9 186 -7 196 3 4 4 18 7 30 7 26 0 51 9 139 51 73 35
97 50 108 67 5 7 12 10 18 7 5 -4 9 -1 9 5 0 6 7 18 15 26 8 9 15 12 15 7 0
-11 37 44 56 84 11 22 14 46 10 70 -3 21 -7 44 -8 51 -1 6 -7 12 -15 12 -7 0
-13 6 -13 13 0 13 -40 52 -40 39 0 -4 -5 1 -11 11 -6 9 -14 15 -20 12 -5 -4
-9 -2 -9 4 0 9 -56 27 -72 23 -5 -1 -8 2 -8 6 0 8 -21 12 -77 15 -18 1 -33 5
-33 9 0 3 -74 6 -165 6 -91 0 -165 -3 -165 -8z"/>
<path d="M5760 2408 c-11 -10 -20 -25 -20 -33 0 -8 -5 -15 -10 -15 -7 0 -6 -8
1 -22 7 -13 12 -25 12 -28 -2 -16 34 -80 45 -80 7 0 11 -4 8 -9 -4 -5 10 -26
30 -48 76 -82 162 -169 190 -192 16 -13 43 -36 60 -50 17 -14 41 -33 53 -41
13 -8 32 -23 43 -32 12 -10 27 -18 35 -18 8 0 12 -4 8 -9 -3 -5 5 -13 17 -17
13 -4 39 -17 58 -29 20 -12 50 -26 68 -30 17 -3 32 -10 32 -15 0 -11 101 -7
122 5 9 6 17 15 18 20 1 6 6 9 10 8 5 -2 7 6 5 17 -2 11 0 20 4 20 10 0 5 95
-6 113 -4 6 -8 17 -8 22 -1 21 -29 85 -38 85 -5 0 -7 6 -4 14 3 8 -1 17 -9 20
-9 3 -13 10 -9 15 3 6 -3 14 -12 20 -10 6 -13 11 -8 11 6 1 -3 7 -20 14 -37
16 -61 10 -44 -10 6 -8 8 -14 3 -14 -5 0 -3 -4 3 -8 7 -4 14 -19 17 -32 2 -14
8 -24 13 -23 6 1 9 -8 9 -20 -1 -12 4 -30 12 -39 9 -10 11 -18 5 -18 -6 0 -8
-11 -5 -25 2 -15 0 -25 -7 -25 -6 0 -11 -7 -11 -15 0 -8 -7 -16 -15 -16 -8 -1
-21 -2 -27 -4 -7 -1 -23 4 -35 12 -13 7 -23 11 -23 7 0 -7 -130 65 -146 80
-18 19 -23 43 -11 55 9 9 8 11 -4 6 -12 -5 -15 2 -14 32 1 23 -5 43 -14 51 -9
8 -10 11 -3 7 6 -3 12 -1 12 4 0 6 -3 11 -7 11 -5 0 -9 12 -10 26 0 15 -5 29
-10 33 -4 3 -9 13 -11 21 -2 8 -8 17 -13 18 -5 2 -9 9 -9 15 0 22 -103 120
-114 110 -3 -4 -6 -2 -6 4 0 10 -36 26 -52 24 -5 -1 -8 4 -8 11 0 6 -3 8 -6 5
-4 -3 -16 -2 -26 4 -36 19 -96 17 -118 -3z m128 -88 c26 0 83 -38 129 -86 24
-24 40 -44 37 -44 -2 0 1 -10 8 -22 7 -13 11 -26 10 -30 -1 -5 3 -8 9 -8 5 0
8 -4 4 -9 -3 -5 -1 -12 4 -16 6 -3 8 -12 4 -20 -3 -8 -1 -15 5 -15 6 0 9 -8 7
-17 -2 -10 -4 -20 -4 -22 -1 -3 -8 4 -17 15 -8 10 -12 13 -8 5 4 -7 -7 -3 -25
10 -17 12 -31 26 -31 29 0 4 -10 11 -22 17 -48 22 -192 158 -183 172 3 6 2 11
-3 11 -6 0 -8 9 -5 19 3 13 12 18 29 16 13 -1 24 3 25 9 0 7 3 6 6 -1 2 -7 12
-13 21 -13z"/>
<path d="M1137 2157 c-23 -7 -55 -47 -37 -47 5 0 10 3 10 8 0 4 34 8 75 10 41
2 75 -1 75 -5 0 -11 -20 -40 -20 -29 0 5 -8 2 -17 -7 -10 -8 -30 -19 -45 -22
-16 -4 -28 -12 -28 -17 0 -6 -6 -8 -14 -5 -8 3 -16 2 -18 -2 -4 -9 -99 -55
-110 -53 -5 1 -8 -2 -8 -6 0 -5 -6 -9 -12 -9 -7 0 -35 -10 -63 -23 -27 -13
-56 -23 -62 -23 -7 0 -13 -4 -13 -9 0 -4 -5 -8 -10 -8 -6 0 -29 -9 -51 -19
-21 -11 -36 -14 -32 -8 3 7 -2 5 -13 -4 -10 -9 -37 -22 -59 -29 -22 -7 -45
-16 -51 -21 -6 -5 -19 -10 -30 -12 -10 -1 -25 -6 -31 -10 -7 -5 -13 -5 -13 0
0 4 -4 2 -9 -5 -7 -12 -24 -18 -53 -21 -12 -1 -9 -31 2 -31 6 0 10 -6 10 -12
0 -7 12 -21 25 -31 21 -15 28 -16 47 -5 13 7 29 11 36 10 6 -2 12 2 12 8 0 5
5 10 11 10 5 0 36 12 67 26 31 15 63 27 70 27 6 0 12 3 12 6 0 3 12 11 28 18
27 12 103 44 112 48 3 2 15 6 28 10 12 4 22 12 22 18 0 6 3 8 6 4 4 -3 19 0
35 9 16 8 31 14 34 14 3 0 6 0 8 1 1 0 13 2 27 5 14 2 34 8 45 13 26 12 72 23
114 27 18 2 41 9 49 16 13 11 14 11 7 -2 -8 -13 -7 -13 8 -1 12 9 17 10 17 2
0 -7 5 -9 12 -5 17 11 48 12 42 2 -5 -7 20 -10 108 -11 48 0 109 53 92 80 -17
27 -74 20 -331 -41 -13 -2 -25 -1 -28 4 -4 7 33 22 50 20 3 0 13 6 21 15 9 8
20 13 25 10 5 -4 9 -2 9 3 0 4 16 14 35 22 19 8 35 18 35 22 0 5 4 7 8 4 4 -2
13 4 20 14 10 17 8 21 -16 33 -15 8 -35 13 -44 12 -10 -2 -18 0 -18 3 0 10
-185 9 -213 -1z"/>
<path d="M4670 2130 c0 -11 5 -20 10 -20 6 0 10 -5 10 -10 0 -6 16 -26 35 -46
19 -19 35 -33 35 -30 0 5 88 -83 113 -113 9 -12 17 -26 17 -31 0 -6 4 -10 9
-10 11 0 131 -234 131 -255 0 -8 4 -15 8 -15 4 0 9 -12 10 -27 1 -15 7 -30 14
-34 6 -4 8 -14 5 -23 -4 -9 -2 -16 4 -16 6 0 7 -4 4 -10 -3 -5 -2 -10 3 -10 5
0 9 -6 10 -12 0 -7 4 -24 7 -38 4 -14 9 -40 12 -57 3 -18 9 -33 13 -33 4 0 8
-15 9 -32 0 -18 3 -44 6 -58 4 -14 9 -43 11 -65 8 -62 9 -69 15 -80 3 -5 7
-32 8 -59 1 -28 4 -53 6 -57 3 -4 -2 -9 -10 -13 -10 -3 -17 3 -21 19 -3 13
-12 26 -20 29 -8 3 -14 12 -14 21 0 8 -4 15 -10 15 -5 0 -10 7 -10 15 0 8 -4
15 -10 15 -5 0 -10 7 -10 15 0 8 -5 15 -11 15 -5 0 -8 4 -5 9 3 5 -1 11 -9 15
-8 3 -15 12 -15 21 0 8 -4 15 -10 15 -5 0 -10 8 -10 18 0 10 -9 24 -19 32 -11
7 -18 17 -15 22 3 4 0 8 -6 8 -6 0 -9 4 -6 8 3 5 -4 14 -14 22 -10 8 -17 17
-15 21 3 4 -2 12 -10 19 -8 7 -15 19 -15 26 0 8 -4 14 -10 14 -5 0 -10 4 -10
9 0 6 -13 30 -30 54 -16 25 -30 50 -30 56 0 6 -4 11 -10 11 -5 0 -10 6 -10 14
0 8 -3 16 -7 18 -10 4 -42 57 -50 81 -3 9 -9 17 -14 17 -5 0 -9 6 -9 14 0 7
-7 19 -15 26 -8 7 -12 16 -9 21 3 5 -2 9 -10 9 -10 0 -13 6 -10 15 4 8 2 15
-3 15 -5 0 -15 16 -23 35 -7 19 -20 37 -27 40 -8 2 -12 9 -8 14 5 10 -23 51
-35 51 -3 0 -5 -19 -3 -42 4 -60 5 -68 13 -68 3 0 6 -15 5 -32 -1 -18 3 -44 8
-58 5 -14 11 -45 14 -70 3 -25 8 -47 12 -50 4 -3 6 -16 6 -30 -1 -14 3 -38 8
-55 5 -16 10 -54 12 -83 1 -29 6 -56 11 -60 4 -4 4 -1 -1 7 -6 10 -4 12 4 7 9
-6 9 -11 0 -22 -6 -8 -8 -14 -3 -14 5 0 10 -30 12 -68 4 -105 5 -112 17 -112
5 0 3 -5 -5 -10 -8 -5 -10 -10 -5 -10 7 0 11 -54 10 -150 0 -82 -1 -150 -3
-150 -7 0 -33 30 -33 37 1 17 -23 73 -31 73 -4 0 -8 8 -8 19 0 10 -6 24 -14
31 -8 6 -12 18 -9 26 3 9 -1 14 -12 14 -9 0 -13 4 -10 10 3 5 -2 21 -11 35 -9
14 -12 25 -8 25 5 0 4 4 -1 8 -16 11 -65 129 -57 138 4 4 1 4 -5 0 -8 -4 -13
-1 -14 8 -1 9 -3 19 -4 24 -10 28 -17 53 -18 59 0 4 -6 14 -13 21 -7 7 -11 19
-7 27 3 9 1 21 -5 28 -5 6 -12 26 -13 42 -2 17 -7 33 -11 36 -5 3 -10 19 -11
36 -2 16 -7 35 -11 42 -4 6 -1 11 6 11 11 0 11 2 0 9 -8 4 -15 26 -17 47 -1
21 -4 39 -5 39 -3 0 -10 39 -13 75 -2 19 -7 34 -10 33 -4 -2 -12 -3 -18 -3 -5
0 -7 -4 -4 -10 3 -5 -1 -10 -9 -10 -9 0 -16 -5 -16 -11 0 -5 -4 -8 -9 -4 -6 3
-14 -3 -20 -12 -6 -10 -11 -14 -11 -9 0 19 -49 -46 -72 -94 -12 -26 -13 -29
-23 -70 -11 -41 -13 -184 -2 -197 6 -9 5 -13 -3 -13 -10 0 -10 -3 0 -15 6 -8
9 -19 5 -25 -3 -5 -2 -10 4 -10 5 0 8 -8 6 -17 -1 -10 3 -24 9 -32 9 -12 8
-13 -4 -7 -11 6 -11 4 1 -6 16 -13 19 -19 19 -40 0 -16 40 -63 60 -70 8 -3 20
0 25 6 13 14 11 59 -3 64 -6 2 -8 10 -5 18 3 9 -1 14 -12 14 -9 0 -13 5 -10
10 3 6 1 10 -4 10 -6 0 -11 6 -11 14 0 7 -6 19 -14 25 -7 6 -12 22 -10 36 1
14 -2 23 -7 19 -10 -6 -10 -2 -13 96 -2 36 0 70 3 75 3 6 6 15 8 20 1 6 4 21
7 35 3 14 10 26 16 28 5 2 10 10 10 19 0 14 9 26 41 51 14 11 16 8 16 -21 -1
-18 3 -39 8 -47 5 -8 9 -38 10 -66 0 -28 5 -58 11 -65 5 -8 9 -29 9 -46 -1
-24 3 -33 14 -33 14 0 14 -1 1 -10 -9 -6 -10 -10 -3 -10 6 0 10 -9 8 -20 -2
-11 0 -20 6 -20 5 0 8 -3 7 -7 -1 -5 3 -24 10 -43 7 -19 13 -37 14 -40 0 -3
10 -27 23 -55 12 -27 20 -56 18 -62 -3 -7 2 -13 11 -13 9 0 13 -7 11 -19 -2
-11 3 -25 11 -31 7 -7 12 -16 9 -20 -3 -5 2 -16 11 -24 8 -9 12 -16 9 -16 -4
0 0 -11 9 -25 9 -14 14 -30 11 -35 -3 -6 -1 -10 4 -10 6 0 11 -6 11 -13 0 -7
6 -19 13 -26 6 -6 12 -15 12 -19 2 -20 30 -82 38 -82 5 0 7 -7 3 -15 -3 -8 -2
-15 3 -15 4 0 16 -20 27 -45 10 -25 22 -45 26 -45 4 0 8 -9 8 -20 0 -11 5 -20
11 -20 5 0 7 -4 4 -10 -3 -5 -1 -10 4 -10 6 0 11 -6 11 -13 0 -16 40 -65 41
-51 0 5 2 17 4 27 2 11 -1 15 -8 10 -9 -5 -9 -3 -1 8 6 8 11 38 12 68 1 30 6
58 13 61 8 6 7 9 -2 13 -9 4 -10 8 -4 14 13 10 16 43 4 43 -6 0 -6 7 0 17 5
10 10 20 12 23 1 3 -3 15 -9 27 -7 12 -8 24 -4 27 11 6 8 128 -3 146 -6 9 -4
11 6 5 11 -7 12 -6 2 6 -11 14 -13 27 -15 152 -1 31 -5 57 -10 57 -5 0 -8 8
-7 18 1 9 0 19 -1 22 -1 3 -3 23 -4 45 0 22 -4 45 -8 51 -4 7 -9 32 -10 57 -2
25 -6 43 -10 40 -5 -2 -9 13 -10 34 -2 56 -3 61 -11 69 -11 11 -8 36 3 29 6
-4 8 -10 5 -15 -3 -4 2 -10 10 -14 8 -3 15 -12 15 -21 0 -8 5 -15 11 -15 6 0
9 -7 5 -15 -3 -8 -1 -15 4 -15 6 0 10 -6 10 -14 0 -8 6 -21 13 -28 7 -7 20
-28 28 -45 7 -18 17 -33 20 -33 6 0 10 -11 18 -45 1 -5 9 -14 17 -18 8 -4 14
-13 14 -18 0 -6 14 -30 30 -54 17 -24 30 -48 30 -54 0 -6 5 -11 10 -11 6 0 10
-7 10 -15 0 -8 5 -15 11 -15 5 0 7 -5 4 -10 -3 -6 1 -13 9 -16 9 -3 14 -10 11
-14 -3 -4 2 -13 10 -20 8 -7 15 -18 15 -25 0 -7 7 -18 15 -25 8 -7 12 -16 9
-21 -3 -5 0 -9 5 -9 6 0 11 -7 11 -15 0 -8 5 -15 10 -15 6 0 10 -5 10 -10 0
-6 11 -27 23 -48 51 -80 61 -97 58 -101 -1 -2 1 -7 6 -10 14 -10 78 -122 76
-132 -2 -4 4 -6 12 -3 8 3 14 9 13 12 0 4 0 9 1 12 9 23 7 70 -3 70 -7 0 -7 3
-1 8 14 10 16 64 2 55 -6 -4 -7 -1 -1 8 12 18 12 79 0 79 -5 0 -3 6 3 14 9 11
9 15 -1 19 -10 4 -10 8 2 16 8 6 10 11 4 11 -9 0 -18 65 -17 127 1 13 -2 21
-7 18 -6 -4 -8 10 -12 75 0 8 -6 21 -12 29 -9 12 -8 13 4 6 12 -6 13 -5 3 6
-7 7 -13 30 -13 52 0 21 -4 36 -9 32 -5 -3 -9 7 -9 23 1 15 -4 38 -11 50 -6
12 -8 22 -4 22 4 0 2 5 -4 11 -6 6 -9 18 -6 25 3 8 0 14 -6 14 -6 0 -11 13
-11 29 0 17 -4 33 -10 36 -5 3 -10 17 -10 31 0 13 -4 24 -10 24 -5 0 -10 9
-10 19 0 11 -8 36 -19 58 -10 21 -29 61 -42 88 -13 28 -27 55 -32 60 -4 6 -29
44 -56 86 -52 81 -70 105 -114 150 -16 16 -25 29 -21 29 16 0 -89 72 -111 76
-20 3 -25 0 -25 -16z"/>
<path d="M4904 2141 c4 -6 3 -11 -3 -11 -14 0 12 -59 40 -88 12 -13 36 -30 52
-39 34 -17 47 -7 39 32 -4 25 -68 94 -87 96 -5 1 -18 5 -29 11 -13 7 -16 7
-12 -1z"/>
<path d="M5523 2095 c-6 -14 -8 -25 -4 -25 4 0 7 -10 8 -22 2 -28 21 -96 34
-120 5 -10 9 -27 9 -38 0 -14 4 -19 12 -14 7 5 9 2 5 -8 -3 -9 0 -21 6 -27 6
-6 7 -11 2 -11 -6 0 -3 -4 5 -10 8 -5 12 -11 10 -14 -7 -6 -80 60 -80 72 0 6
-9 14 -20 17 -11 4 -18 11 -15 16 4 5 1 9 -5 9 -7 0 -24 12 -39 28 -31 32 -49
38 -57 17 -3 -8 -10 -13 -15 -10 -9 6 -5 -85 6 -125 30 -114 36 -128 54 -133
19 -5 39 19 21 25 -5 2 -11 17 -14 33 -2 17 -7 38 -11 48 -4 11 -3 23 4 30 8
8 11 8 11 -3 0 -7 3 -11 6 -7 6 6 68 -55 184 -182 36 -39 84 -92 108 -116 23
-25 42 -48 42 -51 0 -3 14 -19 30 -34 17 -15 30 -32 30 -37 1 -4 14 -19 30
-33 17 -13 30 -29 30 -35 0 -6 8 -18 18 -27 9 -9 26 -28 37 -42 19 -24 19 -24
46 -5 14 10 29 15 33 11 4 -4 6 0 4 8 -2 8 2 14 7 13 6 -1 12 7 12 18 1 11 -2
17 -8 14 -5 -4 -9 -1 -9 4 0 6 -26 38 -57 72 -257 270 -283 299 -283 309 0 6
-5 10 -11 10 -5 0 -7 5 -4 10 3 6 -1 13 -9 16 -9 3 -16 15 -16 25 0 10 -5 19
-11 19 -6 0 -9 6 -6 14 3 8 -1 17 -9 20 -8 3 -14 17 -14 31 0 14 -4 25 -8 25
-7 0 -15 40 -13 68 3 35 5 42 17 42 7 0 27 -12 46 -27 72 -60 82 -69 109 -96
16 -16 29 -33 29 -38 0 -5 4 -8 8 -7 5 2 41 -30 80 -69 39 -40 76 -73 82 -73
5 0 10 -5 10 -11 0 -14 26 -39 40 -39 6 0 8 -4 5 -10 -3 -5 -2 -10 2 -10 5 0
27 -16 49 -36 57 -54 139 -104 169 -104 14 0 33 8 43 18 18 19 24 72 7 72 -5
0 -3 5 5 10 10 6 11 10 3 10 -7 0 -12 3 -12 8 1 4 0 9 -1 12 -2 5 -9 46 -12
68 -1 6 -5 12 -10 12 -5 0 -7 4 -3 9 3 5 0 15 -7 23 -7 7 -14 20 -16 28 -6 24
-22 39 -43 37 -19 -1 -28 -27 -8 -27 5 0 7 -4 4 -10 -3 -5 -1 -10 5 -10 6 0 8
-4 5 -10 -3 -5 -2 -18 3 -27 16 -31 21 -68 13 -82 -7 -11 -15 -9 -42 10 -48
33 -67 49 -109 89 -21 19 -75 69 -120 110 -46 41 -105 96 -132 121 -26 25 -50
44 -52 42 -2 -2 -13 7 -24 21 -11 15 -25 26 -31 26 -7 0 -14 7 -17 15 -4 8
-12 15 -20 15 -8 0 -14 4 -14 9 0 12 -85 51 -112 51 -15 0 -27 -9 -35 -25z"/>
<path d="M1597 1884 c-1 -1 -19 -5 -41 -8 -21 -4 -41 -8 -45 -11 -4 -2 -18 -6
-32 -9 -39 -7 -123 -40 -131 -51 -4 -5 -8 -6 -8 -2 0 5 -16 0 -36 -12 -19 -12
-44 -21 -55 -21 -10 0 -19 -5 -19 -12 0 -6 -3 -9 -6 -5 -3 3 -36 -11 -72 -30
-37 -20 -79 -42 -94 -50 -16 -8 -28 -19 -28 -24 0 -5 -3 -8 -7 -7 -13 3 -63
-24 -63 -34 0 -4 -6 -8 -12 -8 -7 0 -35 -20 -63 -45 -27 -24 -53 -45 -57 -45
-9 0 -37 -58 -43 -89 -4 -23 46 -87 58 -74 4 3 7 1 7 -6 0 -7 5 -9 10 -6 6 3
10 2 10 -3 0 -11 23 -13 153 -13 54 -1 106 3 115 7 9 4 33 8 52 10 19 2 36 8
38 14 2 6 7 8 11 6 4 -3 7 4 8 14 1 16 -8 18 -118 16 -65 -1 -119 2 -119 6 0
4 -5 8 -11 8 -16 0 -34 23 -34 45 0 11 16 35 35 52 70 65 105 93 118 93 6 0
12 4 12 10 0 12 93 8 103 -5 4 -6 11 -4 17 5 5 8 10 10 10 4 0 -11 167 -11
210 1 14 3 31 7 38 7 6 1 12 5 12 10 0 5 5 6 10 3 6 -3 23 3 39 14 16 12 34
21 40 21 6 0 11 5 11 10 0 6 5 10 10 10 6 0 24 14 40 30 16 17 27 30 24 30 -3
0 4 9 15 21 22 24 31 58 20 85 -4 10 -8 15 -8 9 -1 -5 -5 -4 -10 3 -4 7 -17
15 -27 17 -10 2 -19 4 -19 5 0 3 -65 6 -68 4z m-34 -56 c19 15 57 -4 54 -27
-4 -23 -61 -93 -70 -84 -4 3 -9 -2 -13 -11 -3 -9 -10 -13 -15 -10 -5 3 -9 1
-9 -4 0 -9 -28 -20 -70 -28 -8 -2 -31 -6 -50 -10 -44 -9 -158 -11 -171 -3 -5
3 3 12 18 20 16 8 37 22 47 31 10 10 23 15 28 12 4 -3 8 -1 8 4 0 4 16 14 35
22 19 8 35 18 35 22 0 5 4 7 9 3 5 -3 17 2 25 11 9 8 16 12 16 7 0 -4 4 -3 8
2 11 16 52 36 61 30 5 -2 15 2 22 11 9 11 15 12 17 5 3 -8 8 -8 15 -3z"/>
<path d="M5172 1785 c-7 -8 -12 -17 -12 -20 0 -3 0 -6 -1 -7 -5 -13 -4 -88 1
-88 3 0 6 -17 6 -37 1 -48 29 -116 46 -111 16 6 22 34 12 56 -4 9 -8 33 -9 53
-1 30 2 35 17 31 10 -2 18 -11 18 -19 0 -8 5 -11 10 -8 6 3 10 0 10 -8 0 -7 9
-23 20 -35 11 -12 20 -26 20 -32 0 -5 5 -10 10 -10 6 0 10 -6 10 -14 0 -8 7
-17 16 -20 9 -4 14 -9 11 -12 -3 -4 -1 -11 4 -18 32 -36 109 -152 109 -163 0
-7 5 -12 12 -11 7 2 12 -1 13 -7 1 -16 38 -75 47 -75 4 0 8 -6 8 -14 0 -8 4
-16 8 -18 5 -1 24 -25 42 -53 38 -55 85 -105 100 -105 6 0 10 -4 10 -9 0 -5
14 -9 31 -9 22 1 34 8 42 25 5 12 13 23 16 23 10 0 7 133 -2 148 -5 7 -3 12 5
12 8 0 9 3 3 8 -11 8 -14 17 -17 61 -2 22 -8 31 -25 34 -13 2 -24 -1 -25 -7
-4 -31 -3 -64 2 -61 3 2 6 -16 7 -41 1 -24 -2 -42 -7 -39 -4 3 -10 0 -12 -6
-2 -6 -18 2 -35 19 -18 16 -29 32 -26 36 3 3 1 6 -5 6 -7 0 -12 5 -12 10 0 6
-8 19 -17 29 -23 25 -33 38 -63 81 -13 19 -30 41 -37 48 -7 7 -20 26 -30 42
-9 17 -21 30 -25 30 -4 0 -8 7 -8 15 0 8 -4 15 -10 15 -5 0 -10 5 -10 10 0 6
-12 23 -26 38 -14 15 -32 40 -40 55 -14 27 -21 35 -71 91 -13 14 -23 29 -23
33 0 15 -65 63 -85 63 -11 -1 -26 -7 -33 -15z"/>
<path d="M2763 1754 c-3 -8 -9 -11 -14 -8 -5 3 -9 -1 -9 -9 0 -8 -7 -18 -16
-21 -8 -3 -12 -11 -8 -17 4 -7 1 -17 -7 -23 -15 -12 -21 -56 -8 -56 4 0 9 -8
11 -17 4 -15 13 -10 46 25 24 24 42 49 41 55 -1 7 1 20 5 29 4 9 6 25 4 34 -4
21 -37 27 -45 8z"/>
<path d="M1832 1688 c-5 -5 -20 -9 -35 -10 -15 -1 -27 -6 -27 -10 0 -4 -3 -7
-7 -6 -19 4 -83 -15 -94 -28 -6 -8 -16 -11 -21 -8 -6 4 -5 -4 2 -16 8 -15 15
-19 19 -11 4 6 19 12 34 13 15 1 27 5 27 9 0 7 28 9 58 3 21 -4 20 -6 -15 -36
-21 -17 -49 -42 -63 -55 -14 -13 -43 -38 -64 -55 -22 -18 -48 -41 -58 -50 -10
-10 -18 -15 -18 -10 0 4 -4 2 -8 -4 -6 -8 -108 -93 -202 -167 -9 -7 -36 -29
-62 -49 -25 -21 -49 -38 -52 -38 -8 0 -76 -69 -76 -77 0 -3 3 -4 6 0 3 3 24
-5 46 -19 43 -28 48 -26 100 30 10 10 18 16 18 12 0 -4 11 5 25 20 14 15 25
24 25 21 0 -3 23 17 52 43 29 27 57 46 62 43 5 -3 7 -2 4 3 -3 5 0 15 8 22 8
7 14 10 14 7 0 -3 15 9 33 27 18 18 46 42 61 53 15 11 42 32 59 47 18 15 35
28 40 28 15 0 22 4 35 17 7 7 20 13 28 13 8 0 14 5 14 11 0 5 5 7 10 4 6 -3
10 -2 10 4 0 6 7 8 15 5 8 -4 15 -2 15 3 0 12 89 35 102 27 7 -4 8 -2 4 4 -11
17 9 15 24 -3 9 -11 9 -15 1 -15 -7 0 -9 -4 -6 -10 3 -5 -1 -10 -9 -10 -9 0
-16 -4 -16 -9 0 -5 -42 -51 -94 -103 -154 -152 -204 -198 -215 -198 -6 0 -10
-5 -9 -12 2 -7 -7 -17 -19 -23 -13 -5 -23 -15 -23 -22 0 -7 -4 -13 -9 -13 -4
0 -20 -11 -33 -25 -14 -14 -42 -39 -63 -55 -21 -17 -34 -30 -30 -30 4 0 -5
-10 -20 -22 l-27 -21 38 -19 c21 -10 41 -23 44 -29 4 -6 57 38 121 100 63 61
117 111 122 111 4 0 7 5 7 10 0 9 35 50 43 50 1 0 40 36 86 80 46 44 87 80 91
80 5 0 15 6 22 13 20 21 123 66 162 73 28 4 36 2 36 -10 0 -16 -74 -113 -117
-153 -13 -13 -22 -23 -19 -23 2 0 -27 -33 -66 -72 -39 -40 -77 -83 -85 -95 -9
-13 -22 -23 -31 -23 -8 0 -13 -3 -9 -6 3 -4 -7 -18 -23 -32 -17 -15 -30 -32
-30 -40 0 -7 -4 -10 -10 -7 -5 3 -10 0 -10 -9 0 -8 -3 -16 -8 -18 -4 -1 -25
-28 -47 -58 -22 -30 -33 -50 -25 -45 13 7 13 6 2 -7 -7 -8 -10 -26 -8 -39 3
-13 5 -28 5 -32 1 -5 5 -6 10 -2 5 3 12 1 16 -5 4 -6 12 -7 24 -1 10 6 23 6
31 1 10 -6 21 -3 33 8 11 9 22 16 26 16 3 -1 17 3 31 8 14 6 31 11 38 12 7 1
22 10 32 19 11 9 20 14 20 11 0 -4 7 -1 15 6 8 7 15 9 15 4 1 -12 24 27 26 44
1 6 -2 12 -6 12 -17 0 -60 -23 -60 -32 0 -5 -4 -7 -9 -3 -5 3 -12 1 -16 -5 -4
-6 -11 -8 -16 -5 -5 4 -9 1 -9 -5 0 -6 -4 -8 -10 -5 -5 3 -19 1 -31 -6 -12 -6
-19 -7 -15 -1 3 6 1 12 -5 14 -12 4 93 141 156 204 19 19 35 37 35 41 0 3 11
16 24 28 13 12 29 32 35 44 7 12 16 19 22 16 5 -4 9 0 9 7 0 7 14 29 31 48 17
19 43 49 58 66 15 17 34 43 43 56 9 14 24 33 33 42 9 9 13 16 9 16 -3 0 -2 6
4 13 18 21 21 64 6 85 -13 19 -17 19 -58 7 -24 -8 -47 -11 -50 -8 -3 4 -6 1
-6 -6 0 -8 -7 -11 -15 -7 -8 3 -15 2 -15 -2 0 -8 -52 -33 -61 -29 -4 1 -15 -5
-25 -14 -11 -9 -28 -19 -39 -23 -20 -6 -20 -6 -1 9 11 8 17 15 13 15 -4 0 3
11 15 24 13 13 27 21 32 18 5 -3 6 0 2 6 -3 6 2 15 11 21 10 6 15 11 10 11 -4
0 -1 13 7 29 14 26 14 30 -2 42 -15 12 -35 16 -52 9 -3 -1 -16 -3 -30 -6 -42
-7 -150 -48 -150 -57 0 -4 -4 -6 -9 -2 -6 3 -26 -4 -45 -15 -20 -11 -36 -17
-36 -14 0 9 114 114 123 114 5 0 6 4 2 9 -3 5 4 13 16 16 11 4 18 9 15 12 -3
4 -1 12 5 20 9 10 8 13 -5 13 -9 0 -16 3 -16 8 0 10 -98 10 -108 0z"/>
<path d="M2540 1389 c0 -5 -5 -7 -10 -4 -10 6 -84 -27 -150 -67 -45 -28 -82
-67 -75 -79 8 -12 35 -12 35 1 0 6 7 10 15 10 8 0 15 5 15 11 0 5 4 8 9 5 5
-3 12 1 15 9 3 8 9 14 13 14 4 -1 16 1 26 6 10 4 21 4 24 1 8 -8 -27 -76 -39
-76 -4 0 -8 -6 -8 -12 0 -7 -10 -25 -23 -40 -52 -62 -56 -68 -50 -68 4 0 -6
-13 -22 -30 -16 -16 -26 -30 -22 -30 4 0 -1 -8 -10 -18 -10 -10 -25 -29 -33
-42 -8 -12 -22 -29 -30 -38 -8 -9 -15 -19 -15 -23 0 -4 -10 -19 -22 -33 -13
-15 -23 -31 -23 -36 0 -6 -7 -13 -15 -16 -8 -4 -15 -12 -15 -20 0 -8 -4 -14
-10 -14 -5 0 -10 -5 -10 -11 0 -6 -14 -30 -30 -55 -17 -24 -27 -44 -23 -44 4
0 3 -4 -4 -8 -6 -4 -13 -21 -16 -38 -5 -31 15 -54 53 -60 21 -4 130 35 161 57
14 10 38 23 53 29 14 5 26 15 26 21 0 7 3 10 6 6 9 -8 34 18 34 36 0 21 -29
30 -36 12 -4 -8 -10 -13 -14 -10 -4 3 -13 -2 -20 -10 -7 -8 -19 -15 -26 -15
-8 0 -14 -5 -14 -11 0 -5 -4 -8 -9 -4 -5 3 -12 1 -16 -5 -11 -17 -42 -12 -40
8 3 30 27 82 35 77 4 -3 11 6 14 20 3 13 18 36 32 50 14 14 22 30 19 35 -3 6
1 10 10 10 9 0 14 4 11 9 -3 5 4 19 17 33 12 13 23 28 24 33 2 6 9 18 17 27
20 23 41 61 38 71 -1 4 5 7 14 7 8 0 13 4 10 9 -4 5 -3 11 2 13 11 4 57 81 54
91 -1 4 6 7 15 7 9 0 14 3 10 6 -3 4 9 31 28 60 19 30 31 54 27 54 -4 0 0 6 8
13 25 19 22 53 -6 66 -31 14 -34 14 -34 0z"/>
<path d="M2805 1310 c-3 -5 -14 -10 -24 -10 -10 0 -24 -7 -31 -15 -7 -8 -16
-12 -21 -9 -5 3 -9 2 -9 -3 0 -4 -17 -19 -38 -33 -20 -14 -44 -33 -53 -42 -9
-10 -19 -15 -23 -11 -3 3 -6 2 -7 -3 0 -5 -2 -17 -4 -26 -5 -26 22 -22 59 7
47 38 50 40 69 43 21 3 22 -17 3 -43 -8 -11 -11 -26 -8 -34 3 -9 1 -12 -6 -7
-8 5 -12 0 -12 -13 0 -11 -6 -26 -13 -33 -7 -7 -14 -16 -15 -21 -4 -19 -66
-133 -76 -139 -6 -4 -8 -8 -3 -8 4 0 -4 -18 -18 -40 -14 -22 -23 -40 -20 -40
5 0 -37 -66 -57 -90 -7 -8 -11 -16 -8 -17 3 -1 -2 -11 -10 -21 -8 -10 -16 -23
-17 -28 -5 -31 -10 -40 -23 -51 -8 -6 -12 -15 -8 -18 4 -4 1 -14 -7 -21 -8 -8
-12 -24 -10 -36 3 -12 -1 -26 -8 -30 -9 -6 -9 -8 1 -8 7 0 11 -4 8 -9 -3 -4 3
-16 14 -26 11 -10 20 -15 20 -10 0 4 8 1 17 -6 11 -10 14 -10 9 -1 -5 8 -1 11
15 9 13 -2 34 2 48 9 13 7 28 11 33 8 4 -3 8 -2 8 3 0 4 19 17 43 28 23 11 47
27 54 35 7 8 13 12 13 7 0 -4 18 11 39 32 22 22 41 37 44 35 8 -9 -5 -44 -14
-38 -5 3 -6 -1 -4 -9 3 -7 -1 -26 -9 -41 -8 -16 -12 -39 -10 -52 3 -14 0 -24
-7 -24 -8 0 -9 -4 0 -13 6 -8 8 -16 5 -19 -3 -3 9 -16 25 -28 20 -13 31 -17
31 -9 0 7 3 9 6 6 9 -9 104 43 104 56 0 6 3 8 6 5 10 -11 134 121 128 136 -8
20 -32 13 -58 -17 -13 -15 -26 -24 -30 -20 -3 3 -6 1 -6 -6 0 -17 -26 -42 -34
-33 -4 3 -11 0 -15 -7 -5 -7 -13 -11 -19 -7 -13 8 -23 46 -11 46 4 0 5 7 2 17
-4 11 -3 14 5 9 8 -5 12 1 12 18 0 14 4 26 8 26 4 0 8 9 9 19 1 11 11 38 21
60 11 23 16 38 10 35 -9 -6 10 34 22 46 3 3 7 16 9 30 1 14 8 28 13 31 6 4 8
11 4 17 -3 5 1 15 8 22 8 6 14 19 14 28 0 21 24 85 36 93 5 4 5 12 2 18 -4 6
-3 11 3 11 6 0 8 7 5 15 -4 8 -2 15 3 15 5 0 9 10 10 22 1 11 6 24 10 27 4 3
10 17 12 31 1 14 6 27 10 30 3 3 8 12 9 20 13 54 10 58 -42 56 -24 -1 -30 -7
-43 -46 -8 -25 -19 -50 -24 -56 -5 -6 -10 -23 -11 -37 -1 -14 -7 -25 -13 -24
-5 1 -9 -3 -8 -10 2 -6 -11 -44 -28 -83 -50 -118 -52 -125 -50 -137 1 -7 -2
-13 -8 -13 -5 0 -15 -16 -21 -35 -6 -19 -15 -35 -19 -35 -3 0 -15 -16 -25 -35
-10 -19 -27 -37 -38 -41 -10 -3 -16 -10 -13 -15 4 -5 3 -9 -2 -9 -4 0 -23 -14
-42 -30 -18 -17 -40 -30 -47 -30 -8 0 -14 -4 -14 -10 0 -5 -9 -10 -19 -10 -11
0 -23 -5 -26 -10 -5 -8 -11 -8 -20 0 -14 12 -27 50 -16 50 4 0 7 10 8 22 1 11
8 25 15 29 7 5 10 9 5 9 -10 0 21 60 32 60 4 0 8 7 9 15 1 8 3 22 4 30 1 8 5
15 9 15 6 0 19 29 23 53 0 4 6 11 12 15 9 6 29 52 26 59 -1 2 14 30 33 64 19
33 35 65 35 70 0 6 9 28 20 49 11 22 18 40 15 40 -3 0 2 11 11 25 9 14 13 25
9 25 -4 0 -2 6 4 13 6 8 8 17 4 20 -3 4 -1 7 4 7 16 0 8 50 -8 61 -18 11 -26
11 -34 -1z"/>
<path d="M3757 1249 c-27 -16 -66 -57 -59 -63 3 -3 0 -6 -6 -6 -7 0 -12 -6
-12 -14 0 -8 -10 -22 -22 -31 -13 -8 -22 -18 -20 -20 5 -10 -11 -55 -20 -55
-5 0 -6 -5 -2 -12 4 -7 3 -8 -4 -4 -8 5 -10 22 -6 49 7 46 7 47 0 96 -4 32
-27 61 -49 61 -14 0 -124 -116 -132 -139 -3 -12 -11 -18 -17 -15 -6 4 -8 2 -4
-4 3 -6 -1 -17 -9 -25 -8 -9 -15 -19 -15 -24 0 -4 -10 -14 -22 -22 -20 -13
-22 -12 -11 1 7 8 14 27 15 42 1 14 7 26 13 26 5 0 3 5 -5 10 -8 5 -10 10 -4
10 5 0 11 19 13 42 1 23 4 45 7 50 8 12 -14 47 -28 44 -35 -8 -67 -28 -96 -60
-18 -20 -32 -33 -32 -29 0 4 -8 -4 -17 -17 -9 -14 -23 -29 -30 -33 -7 -4 -13
-15 -13 -22 0 -8 -4 -15 -9 -15 -5 0 -7 -9 -4 -20 3 -11 8 -20 12 -20 10 0 61
60 61 72 0 5 4 7 9 4 5 -3 11 1 15 9 3 8 12 12 20 9 10 -4 12 -13 7 -32 -5
-15 -6 -33 -4 -39 3 -7 1 -13 -4 -13 -10 0 -13 -16 -13 -58 0 -13 -4 -21 -8
-18 -4 2 -8 -12 -10 -32 -3 -55 -5 -62 -13 -62 -5 0 -6 -6 -3 -14 3 -8 0 -17
-5 -21 -6 -3 -9 -10 -6 -15 3 -4 -1 -23 -9 -41 -7 -19 -11 -40 -9 -46 3 -7 1
-13 -4 -13 -6 0 -10 -6 -10 -12 -1 -28 -13 -72 -20 -77 -4 -3 -8 -15 -7 -26 0
-11 -3 -25 -8 -31 -4 -6 -8 -25 -10 -42 -1 -18 -5 -32 -9 -32 -4 0 -9 -9 -12
-20 -3 -11 -1 -18 4 -14 5 3 6 -2 3 -10 -3 -9 -9 -16 -14 -16 -4 0 -7 -12 -6
-27 1 -26 4 -28 53 -31 55 -3 58 -1 67 61 1 9 5 20 9 23 4 4 7 17 7 29 0 11 6
27 13 34 10 11 10 13 0 7 -7 -4 -13 -3 -13 3 0 5 4 11 10 13 5 2 10 18 12 36
1 17 6 32 10 32 3 0 7 8 7 18 0 9 1 24 4 32 7 28 21 115 19 123 -1 4 2 7 7 7
5 0 11 12 14 28 7 35 11 49 28 92 7 19 12 38 11 43 -1 4 2 7 7 7 5 0 14 13 21
30 7 16 16 27 21 24 5 -3 9 2 9 10 0 9 3 16 8 16 4 0 16 13 27 29 27 41 52 46
63 12 9 -28 5 -64 -6 -57 -4 2 -8 -20 -9 -49 -1 -29 -5 -66 -8 -81 -4 -16 -8
-51 -11 -79 -2 -27 -9 -51 -14 -53 -6 -2 -10 -8 -10 -13 0 -6 5 -7 11 -3 8 4
8 0 0 -15 -7 -12 -9 -26 -6 -31 3 -5 1 -11 -3 -14 -5 -3 -7 -18 -4 -32 3 -16
1 -25 -5 -21 -6 4 -9 -10 -9 -33 1 -22 -2 -40 -5 -40 -3 0 -5 -11 -4 -25 2
-14 -1 -25 -6 -25 -6 0 -8 -4 -4 -9 3 -5 1 -12 -4 -16 -6 -3 -8 -12 -4 -20 3
-9 -1 -23 -8 -32 -10 -12 -10 -15 -1 -9 6 4 12 2 12 -3 0 -6 -4 -11 -9 -11 -5
0 -8 -12 -8 -28 2 -26 4 -27 49 -27 50 1 60 6 65 33 8 37 15 89 16 120 1 17 4
32 7 32 3 0 6 10 6 23 1 12 5 47 8 77 4 30 8 64 9 75 1 11 7 23 12 27 6 5 5 8
-3 8 -10 0 -10 5 -2 20 6 11 12 40 14 65 2 24 8 50 14 58 7 8 10 16 7 19 -7 7
16 71 32 86 7 8 11 17 8 22 -3 4 2 11 11 14 8 3 13 10 9 15 -3 6 4 15 16 21
11 7 18 14 15 17 -3 4 3 13 15 21 25 17 32 12 33 -27 1 -16 4 -27 7 -25 4 2 6
-7 5 -21 0 -14 -5 -25 -11 -25 -5 0 -3 -5 5 -10 8 -5 10 -10 4 -10 -7 0 -11
-29 -10 -85 1 -47 -2 -85 -5 -85 -3 0 -4 -12 -1 -26 3 -15 1 -24 -4 -21 -5 3
-9 -16 -9 -41 0 -26 -3 -59 -6 -73 -4 -14 -2 -33 3 -42 6 -11 5 -17 -1 -17 -5
0 -8 -10 -6 -22 3 -12 -1 -25 -7 -29 -9 -6 -8 -11 1 -23 11 -13 11 -16 0 -16
-11 0 -11 -2 1 -10 8 -5 11 -10 5 -10 -5 0 -10 -11 -10 -24 0 -13 3 -22 7 -20
4 3 6 -9 4 -25 -2 -17 1 -31 7 -31 6 0 7 -3 4 -7 -12 -11 44 -55 62 -48 9 4
20 7 26 8 13 3 63 56 83 90 9 15 20 27 24 27 4 0 5 6 2 14 -3 7 2 16 11 20 9
3 13 10 10 16 -3 6 1 13 9 16 20 8 21 38 2 53 -11 9 -21 -1 -51 -48 -21 -33
-45 -63 -53 -66 -19 -7 -35 4 -28 21 3 7 1 16 -4 19 -6 4 -10 11 -10 16 0 6 3
8 8 6 4 -3 7 47 7 110 0 63 4 117 9 120 4 3 2 9 -5 14 -9 5 -10 9 -2 9 6 0 9
9 5 22 -4 16 -2 19 8 13 9 -6 11 -4 5 6 -11 16 -14 49 -5 49 3 0 6 9 6 20 0
11 -4 20 -9 20 -4 0 -5 5 -1 12 4 7 8 64 9 128 0 86 -3 119 -14 133 -8 9 -11
20 -8 24 6 6 -30 43 -42 43 -3 0 -14 -5 -24 -11z"/>
</g>
</svg>
